<mxfile host="Electron" modified="2023-12-07T10:13:28.627Z" agent="Mozilla/5.0 (Windows NT 10.0; Win64; x64) AppleWebKit/537.36 (KHTML, like Gecko) draw.io/22.0.3 Chrome/114.0.5735.289 Electron/25.8.4 Safari/537.36" etag="X9H9Qhx0lAuMidzvi6uY" version="22.0.3" type="device">
  <diagram name="Page-1" id="5f0bae14-7c28-e335-631c-24af17079c00">
    <mxGraphModel dx="2943" dy="1761" grid="1" gridSize="10" guides="1" tooltips="1" connect="1" arrows="1" fold="1" page="1" pageScale="1" pageWidth="1100" pageHeight="850" background="none" math="0" shadow="0">
      <root>
        <mxCell id="0" />
        <mxCell id="1" parent="0" />
        <mxCell id="mmdkQ3DgxTQABvhwrMoQ-8" value="Actor" style="shape=umlActor;verticalLabelPosition=bottom;verticalAlign=top;html=1;outlineConnect=0;" parent="1" vertex="1">
          <mxGeometry x="-330" y="200" width="30" height="60" as="geometry" />
        </mxCell>
        <mxCell id="mmdkQ3DgxTQABvhwrMoQ-22" value="Logic" style="shape=umlFrame;whiteSpace=wrap;html=1;pointerEvents=0;recursiveResize=0;container=1;collapsible=0;width=160;" parent="1" vertex="1">
          <mxGeometry x="60" y="-90" width="1820" height="680" as="geometry" />
        </mxCell>
        <mxCell id="mmdkQ3DgxTQABvhwrMoQ-7" value="APIGatewayService" style="shape=component;align=left;spacingLeft=36;rounded=0;shadow=0;comic=0;labelBackgroundColor=none;strokeWidth=1;fontFamily=Verdana;fontSize=12;html=1;" parent="mmdkQ3DgxTQABvhwrMoQ-22" vertex="1">
          <mxGeometry x="30" y="271" width="170" height="60" as="geometry" />
        </mxCell>
        <mxCell id="mmdkQ3DgxTQABvhwrMoQ-43" value="AuthenticationService" style="shape=umlFrame;whiteSpace=wrap;html=1;pointerEvents=0;recursiveResize=0;container=1;collapsible=0;width=160;" parent="mmdkQ3DgxTQABvhwrMoQ-22" vertex="1">
          <mxGeometry x="210" y="400" width="510" height="160" as="geometry" />
        </mxCell>
        <mxCell id="39150e848f15840c-5" value="AuthenticationManager" style="shape=component;align=left;spacingLeft=36;rounded=0;shadow=0;comic=0;labelBackgroundColor=none;strokeWidth=1;fontFamily=Verdana;fontSize=12;html=1;" parent="mmdkQ3DgxTQABvhwrMoQ-43" vertex="1">
          <mxGeometry x="40" y="50" width="180" height="60" as="geometry" />
        </mxCell>
        <mxCell id="mmdkQ3DgxTQABvhwrMoQ-19" value="UserDatabase" style="shape=component;align=left;spacingLeft=36;rounded=0;shadow=0;comic=0;labelBackgroundColor=none;strokeWidth=1;fontFamily=Verdana;fontSize=12;html=1;" parent="mmdkQ3DgxTQABvhwrMoQ-43" vertex="1">
          <mxGeometry x="300" y="50" width="180" height="60" as="geometry" />
        </mxCell>
        <mxCell id="mmdkQ3DgxTQABvhwrMoQ-75" value="" style="rounded=0;orthogonalLoop=1;jettySize=auto;html=1;endArrow=halfCircle;endFill=0;endSize=6;strokeWidth=1;sketch=0;exitX=1;exitY=0.5;exitDx=0;exitDy=0;" parent="mmdkQ3DgxTQABvhwrMoQ-43" source="39150e848f15840c-5" target="mmdkQ3DgxTQABvhwrMoQ-77" edge="1">
          <mxGeometry relative="1" as="geometry">
            <mxPoint x="270" y="135" as="sourcePoint" />
          </mxGeometry>
        </mxCell>
        <mxCell id="mmdkQ3DgxTQABvhwrMoQ-76" value="" style="rounded=0;orthogonalLoop=1;jettySize=auto;html=1;endArrow=oval;endFill=0;sketch=0;sourcePerimeterSpacing=0;targetPerimeterSpacing=0;endSize=10;exitX=0.086;exitY=0.504;exitDx=0;exitDy=0;exitPerimeter=0;" parent="mmdkQ3DgxTQABvhwrMoQ-43" source="mmdkQ3DgxTQABvhwrMoQ-19" target="mmdkQ3DgxTQABvhwrMoQ-77" edge="1">
          <mxGeometry relative="1" as="geometry">
            <mxPoint x="230" y="135" as="sourcePoint" />
          </mxGeometry>
        </mxCell>
        <mxCell id="mmdkQ3DgxTQABvhwrMoQ-77" value="" style="ellipse;whiteSpace=wrap;html=1;align=center;aspect=fixed;fillColor=none;strokeColor=none;resizable=0;perimeter=centerPerimeter;rotatable=0;allowArrows=0;points=[];outlineConnect=1;" parent="mmdkQ3DgxTQABvhwrMoQ-43" vertex="1">
          <mxGeometry x="260" y="75" width="10" height="10" as="geometry" />
        </mxCell>
        <mxCell id="ubvg3rel_VxKxt8CuiRT-57" value="" style="html=1;rounded=0;" parent="mmdkQ3DgxTQABvhwrMoQ-43" vertex="1">
          <mxGeometry x="80" y="150" width="20" height="20" as="geometry" />
        </mxCell>
        <mxCell id="ubvg3rel_VxKxt8CuiRT-60" value="" style="endArrow=none;html=1;rounded=0;exitX=0.5;exitY=0;exitDx=0;exitDy=0;entryX=0.282;entryY=1.025;entryDx=0;entryDy=0;entryPerimeter=0;" parent="mmdkQ3DgxTQABvhwrMoQ-43" source="ubvg3rel_VxKxt8CuiRT-57" target="39150e848f15840c-5" edge="1">
          <mxGeometry width="50" height="50" relative="1" as="geometry">
            <mxPoint x="200" y="180" as="sourcePoint" />
            <mxPoint x="200" y="110" as="targetPoint" />
          </mxGeometry>
        </mxCell>
        <mxCell id="mmdkQ3DgxTQABvhwrMoQ-67" value="" style="html=1;rounded=0;" parent="mmdkQ3DgxTQABvhwrMoQ-43" vertex="1">
          <mxGeometry x="-10" y="65" width="20" height="20" as="geometry" />
        </mxCell>
        <mxCell id="mmdkQ3DgxTQABvhwrMoQ-68" value="" style="endArrow=none;html=1;rounded=0;exitX=1;exitY=0.5;exitDx=0;exitDy=0;entryX=0.101;entryY=0.589;entryDx=0;entryDy=0;entryPerimeter=0;" parent="mmdkQ3DgxTQABvhwrMoQ-43" source="mmdkQ3DgxTQABvhwrMoQ-67" target="39150e848f15840c-5" edge="1">
          <mxGeometry width="50" height="50" relative="1" as="geometry">
            <mxPoint x="30" y="75" as="sourcePoint" />
            <mxPoint x="57" y="25" as="targetPoint" />
          </mxGeometry>
        </mxCell>
        <mxCell id="ubvg3rel_VxKxt8CuiRT-98" value="" style="html=1;rounded=0;" parent="mmdkQ3DgxTQABvhwrMoQ-43" vertex="1">
          <mxGeometry x="180" y="-10" width="20" height="20" as="geometry" />
        </mxCell>
        <mxCell id="ubvg3rel_VxKxt8CuiRT-106" value="" style="endArrow=none;html=1;rounded=0;entryX=0.5;entryY=1;entryDx=0;entryDy=0;" parent="mmdkQ3DgxTQABvhwrMoQ-43" target="ubvg3rel_VxKxt8CuiRT-98" edge="1">
          <mxGeometry width="50" height="50" relative="1" as="geometry">
            <mxPoint x="190" y="50" as="sourcePoint" />
            <mxPoint x="220" y="1" as="targetPoint" />
          </mxGeometry>
        </mxCell>
        <mxCell id="ubvg3rel_VxKxt8CuiRT-117" value="" style="html=1;rounded=0;" parent="mmdkQ3DgxTQABvhwrMoQ-43" vertex="1">
          <mxGeometry x="460" y="-10" width="20" height="20" as="geometry" />
        </mxCell>
        <mxCell id="ubvg3rel_VxKxt8CuiRT-118" value="" style="rounded=0;orthogonalLoop=1;jettySize=auto;html=1;endArrow=halfCircle;endFill=0;endSize=6;strokeWidth=1;sketch=0;exitX=0.5;exitY=0;exitDx=0;exitDy=0;" parent="mmdkQ3DgxTQABvhwrMoQ-43" source="ubvg3rel_VxKxt8CuiRT-117" target="ubvg3rel_VxKxt8CuiRT-120" edge="1">
          <mxGeometry relative="1" as="geometry">
            <mxPoint x="410" y="25" as="sourcePoint" />
          </mxGeometry>
        </mxCell>
        <mxCell id="ubvg3rel_VxKxt8CuiRT-120" value="" style="ellipse;whiteSpace=wrap;html=1;align=center;aspect=fixed;fillColor=none;strokeColor=none;resizable=0;perimeter=centerPerimeter;rotatable=0;allowArrows=0;points=[];outlineConnect=1;" parent="mmdkQ3DgxTQABvhwrMoQ-43" vertex="1">
          <mxGeometry x="600" y="-96" width="10" height="10" as="geometry" />
        </mxCell>
        <mxCell id="ubvg3rel_VxKxt8CuiRT-122" value="" style="endArrow=none;html=1;rounded=0;entryX=0;entryY=1;entryDx=0;entryDy=0;" parent="mmdkQ3DgxTQABvhwrMoQ-43" target="ubvg3rel_VxKxt8CuiRT-117" edge="1">
          <mxGeometry width="50" height="50" relative="1" as="geometry">
            <mxPoint x="220" y="50" as="sourcePoint" />
            <mxPoint x="270" y="-10" as="targetPoint" />
          </mxGeometry>
        </mxCell>
        <mxCell id="mmdkQ3DgxTQABvhwrMoQ-44" value="TournamentService" style="shape=umlFrame;whiteSpace=wrap;html=1;pointerEvents=0;recursiveResize=0;container=1;collapsible=0;width=160;" parent="mmdkQ3DgxTQABvhwrMoQ-22" vertex="1">
          <mxGeometry x="210" y="34" width="560" height="278" as="geometry" />
        </mxCell>
        <mxCell id="39150e848f15840c-7" value="TournamentManager" style="shape=component;align=left;spacingLeft=36;rounded=0;shadow=0;comic=0;labelBackgroundColor=none;strokeWidth=1;fontFamily=Verdana;fontSize=12;html=1;" parent="mmdkQ3DgxTQABvhwrMoQ-44" vertex="1">
          <mxGeometry x="30" y="45" width="180" height="60" as="geometry" />
        </mxCell>
        <mxCell id="mmdkQ3DgxTQABvhwrMoQ-20" value="TournamentDatabase" style="shape=component;align=left;spacingLeft=36;rounded=0;shadow=0;comic=0;labelBackgroundColor=none;strokeWidth=1;fontFamily=Verdana;fontSize=12;html=1;" parent="mmdkQ3DgxTQABvhwrMoQ-44" vertex="1">
          <mxGeometry x="290" y="25" width="170" height="60" as="geometry" />
        </mxCell>
        <mxCell id="mmdkQ3DgxTQABvhwrMoQ-69" value="" style="html=1;rounded=0;" parent="mmdkQ3DgxTQABvhwrMoQ-44" vertex="1">
          <mxGeometry x="-10" y="65" width="20" height="20" as="geometry" />
        </mxCell>
        <mxCell id="mmdkQ3DgxTQABvhwrMoQ-70" value="" style="endArrow=none;html=1;rounded=0;exitX=1;exitY=0.5;exitDx=0;exitDy=0;entryX=0.092;entryY=0.493;entryDx=0;entryDy=0;entryPerimeter=0;" parent="mmdkQ3DgxTQABvhwrMoQ-44" source="mmdkQ3DgxTQABvhwrMoQ-69" target="39150e848f15840c-7" edge="1">
          <mxGeometry width="50" height="50" relative="1" as="geometry">
            <mxPoint x="30" y="125" as="sourcePoint" />
            <mxPoint x="57" y="75" as="targetPoint" />
          </mxGeometry>
        </mxCell>
        <mxCell id="mmdkQ3DgxTQABvhwrMoQ-95" value="" style="html=1;rounded=0;" parent="mmdkQ3DgxTQABvhwrMoQ-44" vertex="1">
          <mxGeometry x="550" y="148" width="20" height="20" as="geometry" />
        </mxCell>
        <mxCell id="mmdkQ3DgxTQABvhwrMoQ-96" value="" style="endArrow=none;html=1;rounded=0;entryX=1;entryY=0.5;entryDx=0;entryDy=0;edgeStyle=orthogonalEdgeStyle;exitX=0;exitY=0.5;exitDx=0;exitDy=0;" parent="mmdkQ3DgxTQABvhwrMoQ-44" source="mmdkQ3DgxTQABvhwrMoQ-95" target="ubvg3rel_VxKxt8CuiRT-81" edge="1">
          <mxGeometry width="50" height="50" relative="1" as="geometry">
            <mxPoint x="450" y="170" as="sourcePoint" />
            <mxPoint x="94.00000000000006" y="140.0000000000001" as="targetPoint" />
            <Array as="points">
              <mxPoint x="530" y="158" />
              <mxPoint x="530" y="209" />
            </Array>
          </mxGeometry>
        </mxCell>
        <mxCell id="ubvg3rel_VxKxt8CuiRT-63" value="" style="rounded=0;orthogonalLoop=1;jettySize=auto;html=1;endArrow=halfCircle;endFill=0;endSize=6;strokeWidth=1;sketch=0;exitX=1;exitY=0.25;exitDx=0;exitDy=0;" parent="mmdkQ3DgxTQABvhwrMoQ-44" source="39150e848f15840c-7" target="ubvg3rel_VxKxt8CuiRT-65" edge="1">
          <mxGeometry relative="1" as="geometry">
            <mxPoint x="265" y="20" as="sourcePoint" />
          </mxGeometry>
        </mxCell>
        <mxCell id="ubvg3rel_VxKxt8CuiRT-64" value="" style="rounded=0;orthogonalLoop=1;jettySize=auto;html=1;endArrow=oval;endFill=0;sketch=0;sourcePerimeterSpacing=0;targetPerimeterSpacing=0;endSize=10;exitX=0.094;exitY=0.525;exitDx=0;exitDy=0;exitPerimeter=0;" parent="mmdkQ3DgxTQABvhwrMoQ-44" source="mmdkQ3DgxTQABvhwrMoQ-20" target="ubvg3rel_VxKxt8CuiRT-65" edge="1">
          <mxGeometry relative="1" as="geometry">
            <mxPoint x="225" y="20" as="sourcePoint" />
          </mxGeometry>
        </mxCell>
        <mxCell id="ubvg3rel_VxKxt8CuiRT-65" value="" style="ellipse;whiteSpace=wrap;html=1;align=center;aspect=fixed;fillColor=none;strokeColor=none;resizable=0;perimeter=centerPerimeter;rotatable=0;allowArrows=0;points=[];outlineConnect=1;" parent="mmdkQ3DgxTQABvhwrMoQ-44" vertex="1">
          <mxGeometry x="245" y="50" width="10" height="10" as="geometry" />
        </mxCell>
        <mxCell id="ubvg3rel_VxKxt8CuiRT-68" value="" style="ellipse;whiteSpace=wrap;html=1;align=center;aspect=fixed;fillColor=none;strokeColor=none;resizable=0;perimeter=centerPerimeter;rotatable=0;allowArrows=0;points=[];outlineConnect=1;" parent="mmdkQ3DgxTQABvhwrMoQ-44" vertex="1">
          <mxGeometry x="255" y="90" width="10" height="10" as="geometry" />
        </mxCell>
        <mxCell id="mmdkQ3DgxTQABvhwrMoQ-105" value="" style="html=1;rounded=0;" parent="mmdkQ3DgxTQABvhwrMoQ-44" vertex="1">
          <mxGeometry x="110" y="268" width="20" height="20" as="geometry" />
        </mxCell>
        <mxCell id="mmdkQ3DgxTQABvhwrMoQ-106" value="" style="endArrow=none;html=1;rounded=0;exitX=0.5;exitY=0;exitDx=0;exitDy=0;entryX=0.5;entryY=1;entryDx=0;entryDy=0;" parent="mmdkQ3DgxTQABvhwrMoQ-44" source="mmdkQ3DgxTQABvhwrMoQ-105" target="39150e848f15840c-7" edge="1">
          <mxGeometry width="50" height="50" relative="1" as="geometry">
            <mxPoint x="90" y="140" as="sourcePoint" />
            <mxPoint x="-25" y="65" as="targetPoint" />
          </mxGeometry>
        </mxCell>
        <mxCell id="ubvg3rel_VxKxt8CuiRT-81" value="EventManager" style="shape=component;align=left;spacingLeft=36;rounded=0;shadow=0;comic=0;labelBackgroundColor=none;strokeWidth=1;fontFamily=Verdana;fontSize=12;html=1;" parent="mmdkQ3DgxTQABvhwrMoQ-44" vertex="1">
          <mxGeometry x="390" y="179" width="130" height="60" as="geometry" />
        </mxCell>
        <mxCell id="ubvg3rel_VxKxt8CuiRT-83" value="EventQueue" style="shape=component;align=left;spacingLeft=36;rounded=0;shadow=0;comic=0;labelBackgroundColor=none;strokeWidth=1;fontFamily=Verdana;fontSize=12;html=1;" parent="mmdkQ3DgxTQABvhwrMoQ-44" vertex="1">
          <mxGeometry x="196.5" y="193" width="127" height="60" as="geometry" />
        </mxCell>
        <mxCell id="ubvg3rel_VxKxt8CuiRT-84" value="" style="rounded=0;orthogonalLoop=1;jettySize=auto;html=1;endArrow=halfCircle;endFill=0;endSize=6;strokeWidth=1;sketch=0;exitX=0.688;exitY=1.031;exitDx=0;exitDy=0;exitPerimeter=0;" parent="mmdkQ3DgxTQABvhwrMoQ-44" source="39150e848f15840c-7" target="ubvg3rel_VxKxt8CuiRT-86" edge="1">
          <mxGeometry relative="1" as="geometry">
            <mxPoint x="175" y="188" as="sourcePoint" />
          </mxGeometry>
        </mxCell>
        <mxCell id="ubvg3rel_VxKxt8CuiRT-85" value="" style="rounded=0;orthogonalLoop=1;jettySize=auto;html=1;endArrow=oval;endFill=0;sketch=0;sourcePerimeterSpacing=0;targetPerimeterSpacing=0;endSize=10;exitX=0.136;exitY=0.537;exitDx=0;exitDy=0;exitPerimeter=0;edgeStyle=orthogonalEdgeStyle;" parent="mmdkQ3DgxTQABvhwrMoQ-44" source="ubvg3rel_VxKxt8CuiRT-83" target="ubvg3rel_VxKxt8CuiRT-86" edge="1">
          <mxGeometry relative="1" as="geometry">
            <mxPoint x="135" y="188" as="sourcePoint" />
            <Array as="points">
              <mxPoint x="155" y="225" />
            </Array>
          </mxGeometry>
        </mxCell>
        <mxCell id="ubvg3rel_VxKxt8CuiRT-86" value="" style="ellipse;whiteSpace=wrap;html=1;align=center;aspect=fixed;fillColor=none;strokeColor=none;resizable=0;perimeter=centerPerimeter;rotatable=0;allowArrows=0;points=[];outlineConnect=1;" parent="mmdkQ3DgxTQABvhwrMoQ-44" vertex="1">
          <mxGeometry x="150" y="183" width="10" height="10" as="geometry" />
        </mxCell>
        <mxCell id="ubvg3rel_VxKxt8CuiRT-87" value="" style="rounded=0;orthogonalLoop=1;jettySize=auto;html=1;endArrow=halfCircle;endFill=0;endSize=6;strokeWidth=1;sketch=0;exitX=1.007;exitY=0.379;exitDx=0;exitDy=0;exitPerimeter=0;" parent="mmdkQ3DgxTQABvhwrMoQ-44" source="ubvg3rel_VxKxt8CuiRT-83" target="ubvg3rel_VxKxt8CuiRT-89" edge="1">
          <mxGeometry relative="1" as="geometry">
            <mxPoint x="311.5" y="207" as="sourcePoint" />
          </mxGeometry>
        </mxCell>
        <mxCell id="ubvg3rel_VxKxt8CuiRT-88" value="" style="rounded=0;orthogonalLoop=1;jettySize=auto;html=1;endArrow=oval;endFill=0;sketch=0;sourcePerimeterSpacing=0;targetPerimeterSpacing=0;endSize=10;exitX=0.136;exitY=0.521;exitDx=0;exitDy=0;exitPerimeter=0;" parent="mmdkQ3DgxTQABvhwrMoQ-44" source="ubvg3rel_VxKxt8CuiRT-81" target="ubvg3rel_VxKxt8CuiRT-89" edge="1">
          <mxGeometry relative="1" as="geometry">
            <mxPoint x="356.25" y="209.81999999999994" as="sourcePoint" />
          </mxGeometry>
        </mxCell>
        <mxCell id="ubvg3rel_VxKxt8CuiRT-89" value="" style="ellipse;whiteSpace=wrap;html=1;align=center;aspect=fixed;fillColor=none;strokeColor=none;resizable=0;perimeter=centerPerimeter;rotatable=0;allowArrows=0;points=[];outlineConnect=1;" parent="mmdkQ3DgxTQABvhwrMoQ-44" vertex="1">
          <mxGeometry x="357" y="202" width="10" height="10" as="geometry" />
        </mxCell>
        <mxCell id="ubvg3rel_VxKxt8CuiRT-91" value="" style="rounded=0;orthogonalLoop=1;jettySize=auto;html=1;endArrow=halfCircle;endFill=0;endSize=6;strokeWidth=1;sketch=0;exitX=0.135;exitY=0.016;exitDx=0;exitDy=0;exitPerimeter=0;" parent="mmdkQ3DgxTQABvhwrMoQ-44" source="ubvg3rel_VxKxt8CuiRT-81" target="ubvg3rel_VxKxt8CuiRT-93" edge="1">
          <mxGeometry relative="1" as="geometry">
            <mxPoint x="526" y="35" as="sourcePoint" />
          </mxGeometry>
        </mxCell>
        <mxCell id="ubvg3rel_VxKxt8CuiRT-92" value="" style="rounded=0;orthogonalLoop=1;jettySize=auto;html=1;endArrow=oval;endFill=0;sketch=0;sourcePerimeterSpacing=0;targetPerimeterSpacing=0;endSize=10;exitX=0.75;exitY=1;exitDx=0;exitDy=0;edgeStyle=orthogonalEdgeStyle;" parent="mmdkQ3DgxTQABvhwrMoQ-44" source="39150e848f15840c-7" target="ubvg3rel_VxKxt8CuiRT-93" edge="1">
          <mxGeometry relative="1" as="geometry">
            <mxPoint x="486" y="35" as="sourcePoint" />
            <Array as="points">
              <mxPoint x="165" y="174" />
            </Array>
          </mxGeometry>
        </mxCell>
        <mxCell id="ubvg3rel_VxKxt8CuiRT-93" value="" style="ellipse;whiteSpace=wrap;html=1;align=center;aspect=fixed;fillColor=none;strokeColor=none;resizable=0;perimeter=centerPerimeter;rotatable=0;allowArrows=0;points=[];outlineConnect=1;" parent="mmdkQ3DgxTQABvhwrMoQ-44" vertex="1">
          <mxGeometry x="345" y="169" width="10" height="10" as="geometry" />
        </mxCell>
        <mxCell id="mmdkQ3DgxTQABvhwrMoQ-5" value="GitHubIntegrationService" style="shape=component;align=left;spacingLeft=36;rounded=0;shadow=0;comic=0;labelBackgroundColor=none;strokeWidth=1;fontFamily=Verdana;fontSize=12;html=1;" parent="mmdkQ3DgxTQABvhwrMoQ-22" vertex="1">
          <mxGeometry x="1210" y="230" width="200" height="60" as="geometry" />
        </mxCell>
        <mxCell id="mmdkQ3DgxTQABvhwrMoQ-48" value="NotificationService" style="shape=umlFrame;whiteSpace=wrap;html=1;pointerEvents=0;recursiveResize=0;container=1;collapsible=0;width=160;" parent="mmdkQ3DgxTQABvhwrMoQ-22" vertex="1">
          <mxGeometry x="920" y="34" width="490" height="180" as="geometry" />
        </mxCell>
        <mxCell id="mmdkQ3DgxTQABvhwrMoQ-47" value="NotificationQueue" style="shape=component;align=left;spacingLeft=36;rounded=0;shadow=0;comic=0;labelBackgroundColor=none;strokeWidth=1;fontFamily=Verdana;fontSize=12;html=1;" parent="mmdkQ3DgxTQABvhwrMoQ-48" vertex="1">
          <mxGeometry x="50" y="60" width="170" height="60" as="geometry" />
        </mxCell>
        <mxCell id="mmdkQ3DgxTQABvhwrMoQ-3" value="NotificationManager" style="shape=component;align=left;spacingLeft=36;rounded=0;shadow=0;comic=0;labelBackgroundColor=none;strokeWidth=1;fontFamily=Verdana;fontSize=12;html=1;" parent="mmdkQ3DgxTQABvhwrMoQ-48" vertex="1">
          <mxGeometry x="300" y="60" width="160" height="60" as="geometry" />
        </mxCell>
        <mxCell id="mmdkQ3DgxTQABvhwrMoQ-100" value="" style="html=1;rounded=0;" parent="mmdkQ3DgxTQABvhwrMoQ-48" vertex="1">
          <mxGeometry x="-10" y="80" width="20" height="20" as="geometry" />
        </mxCell>
        <mxCell id="mmdkQ3DgxTQABvhwrMoQ-109" value="" style="endArrow=none;html=1;rounded=0;exitX=0.098;exitY=0.521;exitDx=0;exitDy=0;entryX=1;entryY=0.5;entryDx=0;entryDy=0;exitPerimeter=0;" parent="mmdkQ3DgxTQABvhwrMoQ-48" source="mmdkQ3DgxTQABvhwrMoQ-47" target="mmdkQ3DgxTQABvhwrMoQ-100" edge="1">
          <mxGeometry width="50" height="50" relative="1" as="geometry">
            <mxPoint x="50" y="140" as="sourcePoint" />
            <mxPoint x="-65" y="65" as="targetPoint" />
          </mxGeometry>
        </mxCell>
        <mxCell id="ubvg3rel_VxKxt8CuiRT-121" value="" style="html=1;rounded=0;" parent="mmdkQ3DgxTQABvhwrMoQ-48" vertex="1">
          <mxGeometry x="-10" y="136" width="20" height="20" as="geometry" />
        </mxCell>
        <mxCell id="ubvg3rel_VxKxt8CuiRT-123" value="" style="endArrow=none;html=1;rounded=0;entryX=0.25;entryY=1;entryDx=0;entryDy=0;exitX=1;exitY=0.5;exitDx=0;exitDy=0;" parent="mmdkQ3DgxTQABvhwrMoQ-48" source="ubvg3rel_VxKxt8CuiRT-121" target="mmdkQ3DgxTQABvhwrMoQ-47" edge="1">
          <mxGeometry width="50" height="50" relative="1" as="geometry">
            <mxPoint x="70" y="146" as="sourcePoint" />
            <mxPoint x="70" y="106" as="targetPoint" />
          </mxGeometry>
        </mxCell>
        <mxCell id="mmdkQ3DgxTQABvhwrMoQ-51" value="EvaluationService" style="shape=umlFrame;whiteSpace=wrap;html=1;pointerEvents=0;recursiveResize=0;container=1;collapsible=0;width=160;" parent="mmdkQ3DgxTQABvhwrMoQ-22" vertex="1">
          <mxGeometry x="970" y="335" width="490" height="250" as="geometry" />
        </mxCell>
        <mxCell id="mmdkQ3DgxTQABvhwrMoQ-4" value="SubmissionQueue" style="shape=component;align=left;spacingLeft=36;rounded=0;shadow=0;comic=0;labelBackgroundColor=none;strokeWidth=1;fontFamily=Verdana;fontSize=12;html=1;" parent="mmdkQ3DgxTQABvhwrMoQ-51" vertex="1">
          <mxGeometry x="40" y="160" width="170" height="60" as="geometry" />
        </mxCell>
        <mxCell id="mmdkQ3DgxTQABvhwrMoQ-2" value="EvaluationService" style="shape=component;align=left;spacingLeft=36;rounded=0;shadow=0;comic=0;labelBackgroundColor=none;strokeWidth=1;fontFamily=Verdana;fontSize=12;html=1;" parent="mmdkQ3DgxTQABvhwrMoQ-51" vertex="1">
          <mxGeometry x="37" y="40" width="170" height="60" as="geometry" />
        </mxCell>
        <mxCell id="mmdkQ3DgxTQABvhwrMoQ-101" value="" style="html=1;rounded=0;" parent="mmdkQ3DgxTQABvhwrMoQ-51" vertex="1">
          <mxGeometry x="-10" y="60" width="20" height="20" as="geometry" />
        </mxCell>
        <mxCell id="mmdkQ3DgxTQABvhwrMoQ-107" value="" style="endArrow=none;html=1;rounded=0;entryX=1;entryY=0.5;entryDx=0;entryDy=0;exitX=0.089;exitY=0.511;exitDx=0;exitDy=0;exitPerimeter=0;" parent="mmdkQ3DgxTQABvhwrMoQ-51" source="mmdkQ3DgxTQABvhwrMoQ-2" target="mmdkQ3DgxTQABvhwrMoQ-101" edge="1">
          <mxGeometry width="50" height="50" relative="1" as="geometry">
            <mxPoint x="50" y="240" as="sourcePoint" />
            <mxPoint x="-65" y="165" as="targetPoint" />
          </mxGeometry>
        </mxCell>
        <mxCell id="ubvg3rel_VxKxt8CuiRT-44" value="" style="rounded=0;orthogonalLoop=1;jettySize=auto;html=1;endArrow=halfCircle;endFill=0;endSize=6;strokeWidth=1;sketch=0;exitX=0.5;exitY=1;exitDx=0;exitDy=0;" parent="mmdkQ3DgxTQABvhwrMoQ-51" source="mmdkQ3DgxTQABvhwrMoQ-2" target="ubvg3rel_VxKxt8CuiRT-46" edge="1">
          <mxGeometry relative="1" as="geometry">
            <mxPoint x="300" y="141" as="sourcePoint" />
          </mxGeometry>
        </mxCell>
        <mxCell id="ubvg3rel_VxKxt8CuiRT-45" value="" style="rounded=0;orthogonalLoop=1;jettySize=auto;html=1;endArrow=oval;endFill=0;sketch=0;sourcePerimeterSpacing=0;targetPerimeterSpacing=0;endSize=10;exitX=0.483;exitY=-0.002;exitDx=0;exitDy=0;exitPerimeter=0;" parent="mmdkQ3DgxTQABvhwrMoQ-51" source="mmdkQ3DgxTQABvhwrMoQ-4" target="ubvg3rel_VxKxt8CuiRT-46" edge="1">
          <mxGeometry relative="1" as="geometry">
            <mxPoint x="260" y="141" as="sourcePoint" />
          </mxGeometry>
        </mxCell>
        <mxCell id="ubvg3rel_VxKxt8CuiRT-46" value="" style="ellipse;whiteSpace=wrap;html=1;align=center;aspect=fixed;fillColor=none;strokeColor=none;resizable=0;perimeter=centerPerimeter;rotatable=0;allowArrows=0;points=[];outlineConnect=1;" parent="mmdkQ3DgxTQABvhwrMoQ-51" vertex="1">
          <mxGeometry x="117" y="130" width="10" height="10" as="geometry" />
        </mxCell>
        <mxCell id="mmdkQ3DgxTQABvhwrMoQ-52" value="" style="rounded=0;orthogonalLoop=1;jettySize=auto;html=1;endArrow=halfCircle;endFill=0;endSize=6;strokeWidth=1;sketch=0;exitX=1;exitY=0.5;exitDx=0;exitDy=0;" parent="mmdkQ3DgxTQABvhwrMoQ-22" source="mmdkQ3DgxTQABvhwrMoQ-111" target="mmdkQ3DgxTQABvhwrMoQ-54" edge="1">
          <mxGeometry relative="1" as="geometry">
            <mxPoint x="1180" y="370" as="sourcePoint" />
          </mxGeometry>
        </mxCell>
        <mxCell id="mmdkQ3DgxTQABvhwrMoQ-53" value="" style="rounded=0;orthogonalLoop=1;jettySize=auto;html=1;endArrow=oval;endFill=0;sketch=0;sourcePerimeterSpacing=0;targetPerimeterSpacing=0;endSize=10;exitX=0.375;exitY=1.017;exitDx=0;exitDy=0;exitPerimeter=0;" parent="mmdkQ3DgxTQABvhwrMoQ-22" source="mmdkQ3DgxTQABvhwrMoQ-5" target="mmdkQ3DgxTQABvhwrMoQ-54" edge="1">
          <mxGeometry relative="1" as="geometry">
            <mxPoint x="1250" y="290" as="sourcePoint" />
          </mxGeometry>
        </mxCell>
        <mxCell id="mmdkQ3DgxTQABvhwrMoQ-54" value="" style="ellipse;whiteSpace=wrap;html=1;align=center;aspect=fixed;fillColor=none;strokeColor=none;resizable=0;perimeter=centerPerimeter;rotatable=0;allowArrows=0;points=[];outlineConnect=1;" parent="mmdkQ3DgxTQABvhwrMoQ-22" vertex="1">
          <mxGeometry x="1270" y="303" width="10" height="10" as="geometry" />
        </mxCell>
        <mxCell id="mmdkQ3DgxTQABvhwrMoQ-66" value="" style="ellipse;whiteSpace=wrap;html=1;align=center;aspect=fixed;fillColor=none;strokeColor=none;resizable=0;perimeter=centerPerimeter;rotatable=0;allowArrows=0;points=[];outlineConnect=1;" parent="mmdkQ3DgxTQABvhwrMoQ-22" vertex="1">
          <mxGeometry x="120" y="420" width="10" height="10" as="geometry" />
        </mxCell>
        <mxCell id="mmdkQ3DgxTQABvhwrMoQ-64" value="" style="rounded=0;orthogonalLoop=1;jettySize=auto;html=1;endArrow=halfCircle;endFill=0;endSize=6;strokeWidth=1;sketch=0;exitX=0.5;exitY=1;exitDx=0;exitDy=0;" parent="mmdkQ3DgxTQABvhwrMoQ-22" source="mmdkQ3DgxTQABvhwrMoQ-7" edge="1">
          <mxGeometry relative="1" as="geometry">
            <mxPoint x="17" y="415" as="sourcePoint" />
            <mxPoint x="130" y="390" as="targetPoint" />
          </mxGeometry>
        </mxCell>
        <mxCell id="mmdkQ3DgxTQABvhwrMoQ-65" value="" style="rounded=0;orthogonalLoop=1;jettySize=auto;html=1;endArrow=oval;endFill=0;sketch=0;sourcePerimeterSpacing=0;targetPerimeterSpacing=0;endSize=10;exitX=0;exitY=0.25;exitDx=0;exitDy=0;" parent="mmdkQ3DgxTQABvhwrMoQ-22" source="mmdkQ3DgxTQABvhwrMoQ-67" edge="1">
          <mxGeometry relative="1" as="geometry">
            <mxPoint x="147" y="415" as="sourcePoint" />
            <mxPoint x="130" y="390" as="targetPoint" />
          </mxGeometry>
        </mxCell>
        <mxCell id="mmdkQ3DgxTQABvhwrMoQ-111" value="" style="html=1;rounded=0;" parent="mmdkQ3DgxTQABvhwrMoQ-22" vertex="1">
          <mxGeometry x="1205" y="320" width="20" height="20" as="geometry" />
        </mxCell>
        <mxCell id="ubvg3rel_VxKxt8CuiRT-38" value="" style="ellipse;whiteSpace=wrap;html=1;align=center;aspect=fixed;fillColor=none;strokeColor=none;resizable=0;perimeter=centerPerimeter;rotatable=0;allowArrows=0;points=[];outlineConnect=1;" parent="mmdkQ3DgxTQABvhwrMoQ-22" vertex="1">
          <mxGeometry x="1635" y="631" width="10" height="10" as="geometry" />
        </mxCell>
        <mxCell id="ubvg3rel_VxKxt8CuiRT-41" value="" style="ellipse;whiteSpace=wrap;html=1;align=center;aspect=fixed;fillColor=none;strokeColor=none;resizable=0;perimeter=centerPerimeter;rotatable=0;allowArrows=0;points=[];outlineConnect=1;" parent="mmdkQ3DgxTQABvhwrMoQ-22" vertex="1">
          <mxGeometry x="1635" y="621" width="10" height="10" as="geometry" />
        </mxCell>
        <mxCell id="ubvg3rel_VxKxt8CuiRT-7" value="" style="html=1;rounded=0;" parent="mmdkQ3DgxTQABvhwrMoQ-22" vertex="1">
          <mxGeometry x="1049.59" y="580" width="20" height="20" as="geometry" />
        </mxCell>
        <mxCell id="ubvg3rel_VxKxt8CuiRT-9" value="" style="endArrow=none;html=1;rounded=0;entryX=0.5;entryY=1;entryDx=0;entryDy=0;exitX=0.5;exitY=0;exitDx=0;exitDy=0;" parent="mmdkQ3DgxTQABvhwrMoQ-22" source="ubvg3rel_VxKxt8CuiRT-7" target="mmdkQ3DgxTQABvhwrMoQ-4" edge="1">
          <mxGeometry width="50" height="50" relative="1" as="geometry">
            <mxPoint x="899.59" y="470" as="sourcePoint" />
            <mxPoint x="1039.9999999999998" y="584.2200000000003" as="targetPoint" />
          </mxGeometry>
        </mxCell>
        <mxCell id="ubvg3rel_VxKxt8CuiRT-62" value="" style="endArrow=none;html=1;rounded=0;entryX=1;entryY=0.25;entryDx=0;entryDy=0;exitX=0;exitY=0.5;exitDx=0;exitDy=0;" parent="mmdkQ3DgxTQABvhwrMoQ-22" source="mmdkQ3DgxTQABvhwrMoQ-111" target="mmdkQ3DgxTQABvhwrMoQ-2" edge="1">
          <mxGeometry width="50" height="50" relative="1" as="geometry">
            <mxPoint x="1160" y="350" as="sourcePoint" />
            <mxPoint x="1027" y="195" as="targetPoint" />
          </mxGeometry>
        </mxCell>
        <mxCell id="ubvg3rel_VxKxt8CuiRT-71" value="" style="ellipse;whiteSpace=wrap;html=1;align=center;aspect=fixed;fillColor=none;strokeColor=none;resizable=0;perimeter=centerPerimeter;rotatable=0;allowArrows=0;points=[];outlineConnect=1;" parent="mmdkQ3DgxTQABvhwrMoQ-22" vertex="1">
          <mxGeometry x="775" y="177" width="10" height="10" as="geometry" />
        </mxCell>
        <mxCell id="ubvg3rel_VxKxt8CuiRT-73" value="" style="rounded=0;orthogonalLoop=1;jettySize=auto;html=1;endArrow=halfCircle;endFill=0;endSize=6;strokeWidth=1;sketch=0;exitX=1;exitY=0.5;exitDx=0;exitDy=0;" parent="mmdkQ3DgxTQABvhwrMoQ-22" source="mmdkQ3DgxTQABvhwrMoQ-95" target="ubvg3rel_VxKxt8CuiRT-75" edge="1">
          <mxGeometry relative="1" as="geometry">
            <mxPoint x="810" y="180" as="sourcePoint" />
          </mxGeometry>
        </mxCell>
        <mxCell id="ubvg3rel_VxKxt8CuiRT-74" value="" style="rounded=0;orthogonalLoop=1;jettySize=auto;html=1;endArrow=oval;endFill=0;sketch=0;sourcePerimeterSpacing=0;targetPerimeterSpacing=0;endSize=10;exitX=0;exitY=0.5;exitDx=0;exitDy=0;" parent="mmdkQ3DgxTQABvhwrMoQ-22" source="mmdkQ3DgxTQABvhwrMoQ-100" target="ubvg3rel_VxKxt8CuiRT-75" edge="1">
          <mxGeometry relative="1" as="geometry">
            <mxPoint x="770" y="180" as="sourcePoint" />
          </mxGeometry>
        </mxCell>
        <mxCell id="ubvg3rel_VxKxt8CuiRT-75" value="" style="ellipse;whiteSpace=wrap;html=1;align=center;aspect=fixed;fillColor=none;strokeColor=none;resizable=0;perimeter=centerPerimeter;rotatable=0;allowArrows=0;points=[];outlineConnect=1;" parent="mmdkQ3DgxTQABvhwrMoQ-22" vertex="1">
          <mxGeometry x="800" y="174" width="10" height="10" as="geometry" />
        </mxCell>
        <mxCell id="ubvg3rel_VxKxt8CuiRT-95" value="" style="rounded=0;orthogonalLoop=1;jettySize=auto;html=1;endArrow=halfCircle;endFill=0;endSize=6;strokeWidth=1;sketch=0;exitX=0.5;exitY=0;exitDx=0;exitDy=0;noJump=0;jumpStyle=line;jumpSize=10;" parent="mmdkQ3DgxTQABvhwrMoQ-22" source="ubvg3rel_VxKxt8CuiRT-98" target="ubvg3rel_VxKxt8CuiRT-97" edge="1">
          <mxGeometry relative="1" as="geometry">
            <mxPoint x="675" y="318" as="sourcePoint" />
          </mxGeometry>
        </mxCell>
        <mxCell id="ubvg3rel_VxKxt8CuiRT-97" value="" style="ellipse;whiteSpace=wrap;html=1;align=center;aspect=fixed;fillColor=none;strokeColor=none;resizable=0;perimeter=centerPerimeter;rotatable=0;allowArrows=0;points=[];outlineConnect=1;" parent="mmdkQ3DgxTQABvhwrMoQ-22" vertex="1">
          <mxGeometry x="650" y="325" width="10" height="10" as="geometry" />
        </mxCell>
        <mxCell id="ubvg3rel_VxKxt8CuiRT-94" value="" style="html=1;rounded=0;" parent="mmdkQ3DgxTQABvhwrMoQ-22" vertex="1">
          <mxGeometry x="681" y="303" width="20" height="20" as="geometry" />
        </mxCell>
        <mxCell id="ubvg3rel_VxKxt8CuiRT-96" value="" style="rounded=0;orthogonalLoop=1;jettySize=auto;html=1;endArrow=oval;endFill=0;sketch=0;sourcePerimeterSpacing=0;targetPerimeterSpacing=0;endSize=10;exitX=0.5;exitY=1;exitDx=0;exitDy=0;" parent="mmdkQ3DgxTQABvhwrMoQ-22" source="ubvg3rel_VxKxt8CuiRT-94" target="ubvg3rel_VxKxt8CuiRT-97" edge="1">
          <mxGeometry relative="1" as="geometry">
            <mxPoint x="635" y="338" as="sourcePoint" />
          </mxGeometry>
        </mxCell>
        <mxCell id="ubvg3rel_VxKxt8CuiRT-105" value="" style="endArrow=none;html=1;rounded=0;entryX=0.697;entryY=1.002;entryDx=0;entryDy=0;entryPerimeter=0;exitX=0.5;exitY=0;exitDx=0;exitDy=0;" parent="mmdkQ3DgxTQABvhwrMoQ-22" source="ubvg3rel_VxKxt8CuiRT-94" target="ubvg3rel_VxKxt8CuiRT-81" edge="1">
          <mxGeometry width="50" height="50" relative="1" as="geometry">
            <mxPoint x="691" y="300" as="sourcePoint" />
            <mxPoint x="710" y="219" as="targetPoint" />
          </mxGeometry>
        </mxCell>
        <mxCell id="ubvg3rel_VxKxt8CuiRT-109" value="" style="html=1;rounded=0;" parent="mmdkQ3DgxTQABvhwrMoQ-22" vertex="1">
          <mxGeometry x="1400" y="114" width="20" height="20" as="geometry" />
        </mxCell>
        <mxCell id="ubvg3rel_VxKxt8CuiRT-110" value="" style="html=1;rounded=0;" parent="mmdkQ3DgxTQABvhwrMoQ-22" vertex="1">
          <mxGeometry x="1710" y="670" width="20" height="20" as="geometry" />
        </mxCell>
        <mxCell id="ubvg3rel_VxKxt8CuiRT-116" value="" style="endArrow=none;html=1;rounded=0;exitX=0;exitY=0.5;exitDx=0;exitDy=0;entryX=1;entryY=0.5;entryDx=0;entryDy=0;" parent="mmdkQ3DgxTQABvhwrMoQ-22" source="ubvg3rel_VxKxt8CuiRT-109" target="mmdkQ3DgxTQABvhwrMoQ-3" edge="1">
          <mxGeometry width="50" height="50" relative="1" as="geometry">
            <mxPoint x="1430" y="210" as="sourcePoint" />
            <mxPoint x="1373" y="209" as="targetPoint" />
          </mxGeometry>
        </mxCell>
        <mxCell id="ubvg3rel_VxKxt8CuiRT-119" value="" style="rounded=0;orthogonalLoop=1;jettySize=auto;html=1;endArrow=oval;endFill=0;sketch=0;sourcePerimeterSpacing=0;targetPerimeterSpacing=0;endSize=10;exitX=0;exitY=1;exitDx=0;exitDy=0;" parent="mmdkQ3DgxTQABvhwrMoQ-22" source="ubvg3rel_VxKxt8CuiRT-121" target="ubvg3rel_VxKxt8CuiRT-120" edge="1">
          <mxGeometry relative="1" as="geometry">
            <mxPoint x="580" y="425" as="sourcePoint" />
          </mxGeometry>
        </mxCell>
        <mxCell id="ubvg3rel_VxKxt8CuiRT-129" value="" style="rounded=0;orthogonalLoop=1;jettySize=auto;html=1;endArrow=halfCircle;endFill=0;endSize=6;strokeWidth=1;sketch=0;exitX=1;exitY=0.5;exitDx=0;exitDy=0;jumpStyle=arc;jumpSize=7;" parent="mmdkQ3DgxTQABvhwrMoQ-22" source="ubvg3rel_VxKxt8CuiRT-132" target="ubvg3rel_VxKxt8CuiRT-131" edge="1">
          <mxGeometry relative="1" as="geometry">
            <mxPoint x="1075" y="276" as="sourcePoint" />
          </mxGeometry>
        </mxCell>
        <mxCell id="ubvg3rel_VxKxt8CuiRT-130" value="" style="rounded=0;orthogonalLoop=1;jettySize=auto;html=1;endArrow=oval;endFill=0;sketch=0;sourcePerimeterSpacing=0;targetPerimeterSpacing=0;endSize=10;exitX=0.086;exitY=0.528;exitDx=0;exitDy=0;exitPerimeter=0;" parent="mmdkQ3DgxTQABvhwrMoQ-22" source="mmdkQ3DgxTQABvhwrMoQ-5" target="ubvg3rel_VxKxt8CuiRT-131" edge="1">
          <mxGeometry relative="1" as="geometry">
            <mxPoint x="1035" y="276" as="sourcePoint" />
          </mxGeometry>
        </mxCell>
        <mxCell id="ubvg3rel_VxKxt8CuiRT-131" value="" style="ellipse;whiteSpace=wrap;html=1;align=center;aspect=fixed;fillColor=none;strokeColor=none;resizable=0;perimeter=centerPerimeter;rotatable=0;allowArrows=0;points=[];outlineConnect=1;" parent="mmdkQ3DgxTQABvhwrMoQ-22" vertex="1">
          <mxGeometry x="1050" y="271" width="10" height="10" as="geometry" />
        </mxCell>
        <mxCell id="ubvg3rel_VxKxt8CuiRT-132" value="" style="html=1;rounded=0;" parent="mmdkQ3DgxTQABvhwrMoQ-22" vertex="1">
          <mxGeometry x="765" y="250" width="20" height="20" as="geometry" />
        </mxCell>
        <mxCell id="ubvg3rel_VxKxt8CuiRT-134" value="" style="endArrow=none;html=1;rounded=0;exitX=0;exitY=0.5;exitDx=0;exitDy=0;entryX=1;entryY=0.75;entryDx=0;entryDy=0;" parent="mmdkQ3DgxTQABvhwrMoQ-22" source="ubvg3rel_VxKxt8CuiRT-132" target="ubvg3rel_VxKxt8CuiRT-81" edge="1">
          <mxGeometry width="50" height="50" relative="1" as="geometry">
            <mxPoint x="740" y="290" as="sourcePoint" />
            <mxPoint x="683" y="289" as="targetPoint" />
          </mxGeometry>
        </mxCell>
        <mxCell id="ubvg3rel_VxKxt8CuiRT-158" value="" style="endArrow=none;html=1;rounded=0;exitX=0.5;exitY=0;exitDx=0;exitDy=0;entryX=1;entryY=0.5;entryDx=0;entryDy=0;edgeStyle=orthogonalEdgeStyle;" parent="mmdkQ3DgxTQABvhwrMoQ-22" source="ubvg3rel_VxKxt8CuiRT-110" target="ubvg3rel_VxKxt8CuiRT-109" edge="1">
          <mxGeometry width="50" height="50" relative="1" as="geometry">
            <mxPoint x="1600" y="170" as="sourcePoint" />
            <mxPoint x="1580" y="170" as="targetPoint" />
          </mxGeometry>
        </mxCell>
        <mxCell id="mmdkQ3DgxTQABvhwrMoQ-55" value="" style="html=1;rounded=0;" parent="1" vertex="1">
          <mxGeometry x="40" y="220" width="20" height="20" as="geometry" />
        </mxCell>
        <mxCell id="mmdkQ3DgxTQABvhwrMoQ-58" value="" style="endArrow=none;html=1;rounded=0;exitX=1;exitY=0.5;exitDx=0;exitDy=0;entryX=0.099;entryY=0.502;entryDx=0;entryDy=0;entryPerimeter=0;" parent="1" source="mmdkQ3DgxTQABvhwrMoQ-55" target="mmdkQ3DgxTQABvhwrMoQ-7" edge="1">
          <mxGeometry width="50" height="50" relative="1" as="geometry">
            <mxPoint x="80" y="280" as="sourcePoint" />
            <mxPoint x="130" y="230" as="targetPoint" />
          </mxGeometry>
        </mxCell>
        <mxCell id="mmdkQ3DgxTQABvhwrMoQ-62" value="" style="ellipse;whiteSpace=wrap;html=1;align=center;aspect=fixed;fillColor=none;strokeColor=none;resizable=0;perimeter=centerPerimeter;rotatable=0;allowArrows=0;points=[];outlineConnect=1;" parent="1" vertex="1">
          <mxGeometry x="-37" y="225" width="10" height="10" as="geometry" />
        </mxCell>
        <mxCell id="mmdkQ3DgxTQABvhwrMoQ-71" value="" style="ellipse;whiteSpace=wrap;html=1;align=center;aspect=fixed;fillColor=none;strokeColor=none;resizable=0;perimeter=centerPerimeter;rotatable=0;allowArrows=0;points=[];outlineConnect=1;" parent="1" vertex="1">
          <mxGeometry x="200" y="125" width="10" height="10" as="geometry" />
        </mxCell>
        <mxCell id="mmdkQ3DgxTQABvhwrMoQ-72" value="" style="rounded=0;orthogonalLoop=1;jettySize=auto;html=1;endArrow=halfCircle;endFill=0;endSize=6;strokeWidth=1;sketch=0;exitX=0.5;exitY=0;exitDx=0;exitDy=0;" parent="1" source="mmdkQ3DgxTQABvhwrMoQ-7" target="mmdkQ3DgxTQABvhwrMoQ-71" edge="1">
          <mxGeometry relative="1" as="geometry">
            <mxPoint x="205" y="-5" as="sourcePoint" />
          </mxGeometry>
        </mxCell>
        <mxCell id="mmdkQ3DgxTQABvhwrMoQ-73" value="" style="rounded=0;orthogonalLoop=1;jettySize=auto;html=1;endArrow=oval;endFill=0;sketch=0;sourcePerimeterSpacing=0;targetPerimeterSpacing=0;endSize=10;exitX=0;exitY=0.5;exitDx=0;exitDy=0;" parent="1" source="mmdkQ3DgxTQABvhwrMoQ-69" target="mmdkQ3DgxTQABvhwrMoQ-71" edge="1">
          <mxGeometry relative="1" as="geometry">
            <mxPoint x="290" y="129" as="sourcePoint" />
          </mxGeometry>
        </mxCell>
        <mxCell id="mmdkQ3DgxTQABvhwrMoQ-83" value="" style="ellipse;whiteSpace=wrap;html=1;align=center;aspect=fixed;fillColor=none;strokeColor=none;resizable=0;perimeter=centerPerimeter;rotatable=0;allowArrows=0;points=[];outlineConnect=1;" parent="1" vertex="1">
          <mxGeometry x="510" y="127" width="10" height="10" as="geometry" />
        </mxCell>
        <mxCell id="mmdkQ3DgxTQABvhwrMoQ-87" value="" style="ellipse;whiteSpace=wrap;html=1;align=center;aspect=fixed;fillColor=none;strokeColor=none;resizable=0;perimeter=centerPerimeter;rotatable=0;allowArrows=0;points=[];outlineConnect=1;" parent="1" vertex="1">
          <mxGeometry x="498" y="75" width="10" height="10" as="geometry" />
        </mxCell>
        <mxCell id="mmdkQ3DgxTQABvhwrMoQ-91" value="" style="ellipse;whiteSpace=wrap;html=1;align=center;aspect=fixed;fillColor=none;strokeColor=none;resizable=0;perimeter=centerPerimeter;rotatable=0;allowArrows=0;points=[];outlineConnect=1;" parent="1" vertex="1">
          <mxGeometry x="500" y="147" width="10" height="10" as="geometry" />
        </mxCell>
        <mxCell id="mmdkQ3DgxTQABvhwrMoQ-97" value="" style="ellipse;whiteSpace=wrap;html=1;align=center;aspect=fixed;fillColor=none;strokeColor=none;resizable=0;perimeter=centerPerimeter;rotatable=0;allowArrows=0;points=[];outlineConnect=1;" parent="1" vertex="1">
          <mxGeometry x="746" y="228" width="10" height="10" as="geometry" />
        </mxCell>
        <mxCell id="mmdkQ3DgxTQABvhwrMoQ-102" value="" style="ellipse;whiteSpace=wrap;html=1;align=center;aspect=fixed;fillColor=none;strokeColor=none;resizable=0;perimeter=centerPerimeter;rotatable=0;allowArrows=0;points=[];outlineConnect=1;" parent="1" vertex="1">
          <mxGeometry x="620" y="278" width="10" height="10" as="geometry" />
        </mxCell>
        <mxCell id="mmdkQ3DgxTQABvhwrMoQ-103" value="" style="rounded=0;orthogonalLoop=1;jettySize=auto;html=1;endArrow=halfCircle;endFill=0;endSize=6;strokeWidth=1;sketch=0;exitX=0;exitY=0.5;exitDx=0;exitDy=0;jumpStyle=arc;jumpSize=7;" parent="1" source="mmdkQ3DgxTQABvhwrMoQ-101" target="mmdkQ3DgxTQABvhwrMoQ-102" edge="1">
          <mxGeometry relative="1" as="geometry">
            <mxPoint x="592" y="272" as="sourcePoint" />
          </mxGeometry>
        </mxCell>
        <mxCell id="mmdkQ3DgxTQABvhwrMoQ-104" value="" style="rounded=0;orthogonalLoop=1;jettySize=auto;html=1;endArrow=oval;endFill=0;sketch=0;sourcePerimeterSpacing=0;targetPerimeterSpacing=0;endSize=10;exitX=1;exitY=1;exitDx=0;exitDy=0;jumpStyle=arc;jumpSize=7;" parent="1" source="mmdkQ3DgxTQABvhwrMoQ-105" target="mmdkQ3DgxTQABvhwrMoQ-102" edge="1">
          <mxGeometry relative="1" as="geometry">
            <mxPoint x="679" y="254" as="sourcePoint" />
            <Array as="points" />
          </mxGeometry>
        </mxCell>
        <mxCell id="ubvg3rel_VxKxt8CuiRT-3" value="" style="rounded=0;orthogonalLoop=1;jettySize=auto;html=1;endArrow=oval;endFill=0;sketch=0;sourcePerimeterSpacing=0;targetPerimeterSpacing=0;endSize=10;exitX=0.5;exitY=1;exitDx=0;exitDy=0;" parent="1" source="ubvg3rel_VxKxt8CuiRT-2" target="ubvg3rel_VxKxt8CuiRT-4" edge="1">
          <mxGeometry relative="1" as="geometry">
            <mxPoint x="1015" y="691" as="sourcePoint" />
          </mxGeometry>
        </mxCell>
        <mxCell id="ubvg3rel_VxKxt8CuiRT-4" value="" style="ellipse;whiteSpace=wrap;html=1;align=center;aspect=fixed;fillColor=none;strokeColor=none;resizable=0;perimeter=centerPerimeter;rotatable=0;allowArrows=0;points=[];outlineConnect=1;" parent="1" vertex="1">
          <mxGeometry x="1015" y="600" width="10" height="10" as="geometry" />
        </mxCell>
        <mxCell id="ubvg3rel_VxKxt8CuiRT-13" value="" style="ellipse;whiteSpace=wrap;html=1;align=center;aspect=fixed;fillColor=none;strokeColor=none;resizable=0;perimeter=centerPerimeter;rotatable=0;allowArrows=0;points=[];outlineConnect=1;" parent="1" vertex="1">
          <mxGeometry x="1245" y="601" width="10" height="10" as="geometry" />
        </mxCell>
        <mxCell id="ubvg3rel_VxKxt8CuiRT-14" value="" style="endArrow=none;html=1;rounded=0;exitX=0.5;exitY=0;exitDx=0;exitDy=0;entryX=0.5;entryY=1;entryDx=0;entryDy=0;" parent="1" source="ubvg3rel_VxKxt8CuiRT-24" target="ubvg3rel_VxKxt8CuiRT-15" edge="1">
          <mxGeometry width="50" height="50" relative="1" as="geometry">
            <mxPoint x="1260" y="562" as="sourcePoint" />
            <mxPoint x="1270" y="491" as="targetPoint" />
          </mxGeometry>
        </mxCell>
        <mxCell id="ubvg3rel_VxKxt8CuiRT-31" value="" style="rounded=0;orthogonalLoop=1;jettySize=auto;html=1;endArrow=halfCircle;endFill=0;endSize=6;strokeWidth=1;sketch=0;exitX=0.5;exitY=0;exitDx=0;exitDy=0;entryX=0.32;entryY=0.9;entryDx=0;entryDy=0;entryPerimeter=0;" parent="1" source="ubvg3rel_VxKxt8CuiRT-141" target="ubvg3rel_VxKxt8CuiRT-4" edge="1">
          <mxGeometry relative="1" as="geometry">
            <mxPoint x="1020" y="641" as="sourcePoint" />
            <mxPoint x="935" y="600" as="targetPoint" />
          </mxGeometry>
        </mxCell>
        <mxCell id="ubvg3rel_VxKxt8CuiRT-33" value="" style="rounded=0;orthogonalLoop=1;jettySize=auto;html=1;endArrow=halfCircle;endFill=0;endSize=6;strokeWidth=1;sketch=0;exitX=0.5;exitY=1;exitDx=0;exitDy=0;" parent="1" source="ubvg3rel_VxKxt8CuiRT-24" target="ubvg3rel_VxKxt8CuiRT-35" edge="1">
          <mxGeometry relative="1" as="geometry">
            <mxPoint x="1255" y="596" as="sourcePoint" />
          </mxGeometry>
        </mxCell>
        <mxCell id="ubvg3rel_VxKxt8CuiRT-34" value="" style="rounded=0;orthogonalLoop=1;jettySize=auto;html=1;endArrow=oval;endFill=0;sketch=0;sourcePerimeterSpacing=0;targetPerimeterSpacing=0;endSize=10;exitX=0.5;exitY=0;exitDx=0;exitDy=0;" parent="1" source="ubvg3rel_VxKxt8CuiRT-144" target="ubvg3rel_VxKxt8CuiRT-35" edge="1">
          <mxGeometry relative="1" as="geometry">
            <mxPoint x="1260" y="640" as="sourcePoint" />
          </mxGeometry>
        </mxCell>
        <mxCell id="ubvg3rel_VxKxt8CuiRT-35" value="" style="ellipse;whiteSpace=wrap;html=1;align=center;aspect=fixed;fillColor=none;strokeColor=none;resizable=0;perimeter=centerPerimeter;rotatable=0;allowArrows=0;points=[];outlineConnect=1;" parent="1" vertex="1">
          <mxGeometry x="1255" y="600" width="10" height="10" as="geometry" />
        </mxCell>
        <mxCell id="ubvg3rel_VxKxt8CuiRT-47" value="" style="rounded=0;orthogonalLoop=1;jettySize=auto;html=1;endArrow=halfCircle;endFill=0;endSize=6;strokeWidth=1;sketch=0;exitX=0.097;exitY=0.492;exitDx=0;exitDy=0;exitPerimeter=0;" parent="1" source="mmdkQ3DgxTQABvhwrMoQ-3" target="ubvg3rel_VxKxt8CuiRT-49" edge="1">
          <mxGeometry relative="1" as="geometry">
            <mxPoint x="1191" y="95" as="sourcePoint" />
          </mxGeometry>
        </mxCell>
        <mxCell id="ubvg3rel_VxKxt8CuiRT-48" value="" style="rounded=0;orthogonalLoop=1;jettySize=auto;html=1;endArrow=oval;endFill=0;sketch=0;sourcePerimeterSpacing=0;targetPerimeterSpacing=0;endSize=10;exitX=1;exitY=0.5;exitDx=0;exitDy=0;" parent="1" source="mmdkQ3DgxTQABvhwrMoQ-47" target="ubvg3rel_VxKxt8CuiRT-49" edge="1">
          <mxGeometry relative="1" as="geometry">
            <mxPoint x="1105" y="96" as="sourcePoint" />
          </mxGeometry>
        </mxCell>
        <mxCell id="ubvg3rel_VxKxt8CuiRT-49" value="" style="ellipse;whiteSpace=wrap;html=1;align=center;aspect=fixed;fillColor=none;strokeColor=none;resizable=0;perimeter=centerPerimeter;rotatable=0;allowArrows=0;points=[];outlineConnect=1;" parent="1" vertex="1">
          <mxGeometry x="1235" y="29" width="10" height="10" as="geometry" />
        </mxCell>
        <mxCell id="ubvg3rel_VxKxt8CuiRT-52" value="" style="rounded=0;orthogonalLoop=1;jettySize=auto;html=1;endArrow=oval;endFill=0;sketch=0;sourcePerimeterSpacing=0;targetPerimeterSpacing=0;endSize=10;exitX=0.5;exitY=0;exitDx=0;exitDy=0;" parent="1" source="ubvg3rel_VxKxt8CuiRT-139" target="ubvg3rel_VxKxt8CuiRT-53" edge="1">
          <mxGeometry relative="1" as="geometry">
            <mxPoint x="350" y="691" as="sourcePoint" />
          </mxGeometry>
        </mxCell>
        <mxCell id="ubvg3rel_VxKxt8CuiRT-53" value="" style="ellipse;whiteSpace=wrap;html=1;align=center;aspect=fixed;fillColor=none;strokeColor=none;resizable=0;perimeter=centerPerimeter;rotatable=0;allowArrows=0;points=[];outlineConnect=1;" parent="1" vertex="1">
          <mxGeometry x="350" y="600" width="10" height="10" as="geometry" />
        </mxCell>
        <mxCell id="ubvg3rel_VxKxt8CuiRT-55" value="" style="rounded=0;orthogonalLoop=1;jettySize=auto;html=1;endArrow=halfCircle;endFill=0;endSize=6;strokeWidth=1;sketch=0;exitX=0.5;exitY=1;exitDx=0;exitDy=0;entryX=0.32;entryY=0.9;entryDx=0;entryDy=0;entryPerimeter=0;" parent="1" source="ubvg3rel_VxKxt8CuiRT-51" target="ubvg3rel_VxKxt8CuiRT-53" edge="1">
          <mxGeometry relative="1" as="geometry">
            <mxPoint x="355" y="650" as="sourcePoint" />
            <mxPoint x="270" y="600" as="targetPoint" />
          </mxGeometry>
        </mxCell>
        <mxCell id="ubvg3rel_VxKxt8CuiRT-24" value="" style="html=1;rounded=0;" parent="1" vertex="1">
          <mxGeometry x="1250" y="570" width="20" height="20" as="geometry" />
        </mxCell>
        <mxCell id="ubvg3rel_VxKxt8CuiRT-51" value="" style="html=1;rounded=0;" parent="1" vertex="1">
          <mxGeometry x="350" y="561" width="20" height="20" as="geometry" />
        </mxCell>
        <mxCell id="ubvg3rel_VxKxt8CuiRT-56" value="" style="endArrow=none;html=1;rounded=0;exitX=0.5;exitY=0;exitDx=0;exitDy=0;entryX=0.5;entryY=1;entryDx=0;entryDy=0;" parent="1" source="ubvg3rel_VxKxt8CuiRT-51" target="ubvg3rel_VxKxt8CuiRT-57" edge="1">
          <mxGeometry width="50" height="50" relative="1" as="geometry">
            <mxPoint x="370" y="510" as="sourcePoint" />
            <mxPoint x="370" y="440" as="targetPoint" />
          </mxGeometry>
        </mxCell>
        <mxCell id="ubvg3rel_VxKxt8CuiRT-2" value="" style="html=1;rounded=0;" parent="1" vertex="1">
          <mxGeometry x="1010" y="570" width="20" height="20" as="geometry" />
        </mxCell>
        <mxCell id="ubvg3rel_VxKxt8CuiRT-6" value="" style="endArrow=none;html=1;rounded=0;exitX=0.5;exitY=0;exitDx=0;exitDy=0;entryX=0.5;entryY=1;entryDx=0;entryDy=0;" parent="1" source="ubvg3rel_VxKxt8CuiRT-2" target="ubvg3rel_VxKxt8CuiRT-7" edge="1">
          <mxGeometry width="50" height="50" relative="1" as="geometry">
            <mxPoint x="1040" y="450" as="sourcePoint" />
            <mxPoint x="1087" y="450" as="targetPoint" />
          </mxGeometry>
        </mxCell>
        <mxCell id="ubvg3rel_VxKxt8CuiRT-15" value="" style="html=1;rounded=0;" parent="1" vertex="1">
          <mxGeometry x="1290" y="490" width="20" height="20" as="geometry" />
        </mxCell>
        <mxCell id="ubvg3rel_VxKxt8CuiRT-16" value="" style="endArrow=none;html=1;rounded=0;entryX=1;entryY=0.75;entryDx=0;entryDy=0;exitX=0.5;exitY=0;exitDx=0;exitDy=0;edgeStyle=orthogonalEdgeStyle;" parent="1" source="ubvg3rel_VxKxt8CuiRT-15" target="mmdkQ3DgxTQABvhwrMoQ-2" edge="1">
          <mxGeometry width="50" height="50" relative="1" as="geometry">
            <mxPoint x="1250" y="351" as="sourcePoint" />
            <mxPoint x="1260" y="310" as="targetPoint" />
          </mxGeometry>
        </mxCell>
        <mxCell id="ubvg3rel_VxKxt8CuiRT-135" value="WebApplication" style="shape=component;align=left;spacingLeft=36;rounded=0;shadow=0;comic=0;labelBackgroundColor=none;strokeWidth=1;fontFamily=Verdana;fontSize=12;html=1;" parent="1" vertex="1">
          <mxGeometry x="-230" y="203" width="170" height="60" as="geometry" />
        </mxCell>
        <mxCell id="ubvg3rel_VxKxt8CuiRT-136" value="" style="rounded=0;orthogonalLoop=1;jettySize=auto;html=1;endArrow=halfCircle;endFill=0;endSize=6;strokeWidth=1;sketch=0;exitX=1;exitY=0.5;exitDx=0;exitDy=0;" parent="1" source="ubvg3rel_VxKxt8CuiRT-135" target="ubvg3rel_VxKxt8CuiRT-138" edge="1">
          <mxGeometry relative="1" as="geometry">
            <mxPoint x="40" y="273" as="sourcePoint" />
          </mxGeometry>
        </mxCell>
        <mxCell id="ubvg3rel_VxKxt8CuiRT-137" value="" style="rounded=0;orthogonalLoop=1;jettySize=auto;html=1;endArrow=oval;endFill=0;sketch=0;sourcePerimeterSpacing=0;targetPerimeterSpacing=0;endSize=10;exitX=0;exitY=0.5;exitDx=0;exitDy=0;" parent="1" source="mmdkQ3DgxTQABvhwrMoQ-55" target="ubvg3rel_VxKxt8CuiRT-138" edge="1">
          <mxGeometry relative="1" as="geometry">
            <mxPoint y="273" as="sourcePoint" />
          </mxGeometry>
        </mxCell>
        <mxCell id="ubvg3rel_VxKxt8CuiRT-138" value="" style="ellipse;whiteSpace=wrap;html=1;align=center;aspect=fixed;fillColor=none;strokeColor=none;resizable=0;perimeter=centerPerimeter;rotatable=0;allowArrows=0;points=[];outlineConnect=1;" parent="1" vertex="1">
          <mxGeometry x="-5" y="225" width="10" height="10" as="geometry" />
        </mxCell>
        <mxCell id="ubvg3rel_VxKxt8CuiRT-139" value="«external service»&lt;br&gt;&lt;b&gt;SSO&lt;/b&gt;" style="html=1;dropTarget=0;whiteSpace=wrap;" parent="1" vertex="1">
          <mxGeometry x="270" y="655" width="180" height="90" as="geometry" />
        </mxCell>
        <mxCell id="ubvg3rel_VxKxt8CuiRT-140" value="" style="shape=module;jettyWidth=8;jettyHeight=4;" parent="ubvg3rel_VxKxt8CuiRT-139" vertex="1">
          <mxGeometry x="1" width="20" height="20" relative="1" as="geometry">
            <mxPoint x="-27" y="7" as="offset" />
          </mxGeometry>
        </mxCell>
        <mxCell id="ubvg3rel_VxKxt8CuiRT-141" value="«external service»&lt;br&gt;GitHubActions" style="html=1;dropTarget=0;whiteSpace=wrap;" parent="1" vertex="1">
          <mxGeometry x="930" y="655" width="180" height="90" as="geometry" />
        </mxCell>
        <mxCell id="ubvg3rel_VxKxt8CuiRT-142" value="" style="shape=module;jettyWidth=8;jettyHeight=4;" parent="ubvg3rel_VxKxt8CuiRT-141" vertex="1">
          <mxGeometry x="1" width="20" height="20" relative="1" as="geometry">
            <mxPoint x="-27" y="7" as="offset" />
          </mxGeometry>
        </mxCell>
        <mxCell id="ubvg3rel_VxKxt8CuiRT-144" value="«external service»&lt;br&gt;StaticAnalysisService" style="html=1;dropTarget=0;whiteSpace=wrap;" parent="1" vertex="1">
          <mxGeometry x="1170" y="650" width="180" height="90" as="geometry" />
        </mxCell>
        <mxCell id="ubvg3rel_VxKxt8CuiRT-145" value="" style="shape=module;jettyWidth=8;jettyHeight=4;" parent="ubvg3rel_VxKxt8CuiRT-144" vertex="1">
          <mxGeometry x="1" width="20" height="20" relative="1" as="geometry">
            <mxPoint x="-27" y="7" as="offset" />
          </mxGeometry>
        </mxCell>
        <mxCell id="ubvg3rel_VxKxt8CuiRT-147" value="«external service»&lt;br&gt;GitHub" style="html=1;dropTarget=0;whiteSpace=wrap;" parent="1" vertex="1">
          <mxGeometry x="1460" y="650" width="180" height="90" as="geometry" />
        </mxCell>
        <mxCell id="ubvg3rel_VxKxt8CuiRT-148" value="" style="shape=module;jettyWidth=8;jettyHeight=4;" parent="ubvg3rel_VxKxt8CuiRT-147" vertex="1">
          <mxGeometry x="1" width="20" height="20" relative="1" as="geometry">
            <mxPoint x="-27" y="7" as="offset" />
          </mxGeometry>
        </mxCell>
        <mxCell id="ubvg3rel_VxKxt8CuiRT-150" value="" style="rounded=0;orthogonalLoop=1;jettySize=auto;html=1;endArrow=halfCircle;endFill=0;endSize=6;strokeWidth=1;sketch=0;exitX=0.5;exitY=1;exitDx=0;exitDy=0;" parent="1" source="ubvg3rel_VxKxt8CuiRT-37" target="ubvg3rel_VxKxt8CuiRT-152" edge="1">
          <mxGeometry relative="1" as="geometry">
            <mxPoint x="1585" y="625" as="sourcePoint" />
          </mxGeometry>
        </mxCell>
        <mxCell id="ubvg3rel_VxKxt8CuiRT-151" value="" style="rounded=0;orthogonalLoop=1;jettySize=auto;html=1;endArrow=oval;endFill=0;sketch=0;sourcePerimeterSpacing=0;targetPerimeterSpacing=0;endSize=10;exitX=0.673;exitY=-0.006;exitDx=0;exitDy=0;exitPerimeter=0;" parent="1" source="ubvg3rel_VxKxt8CuiRT-147" target="ubvg3rel_VxKxt8CuiRT-152" edge="1">
          <mxGeometry relative="1" as="geometry">
            <mxPoint x="1545" y="625" as="sourcePoint" />
          </mxGeometry>
        </mxCell>
        <mxCell id="ubvg3rel_VxKxt8CuiRT-152" value="" style="ellipse;whiteSpace=wrap;html=1;align=center;aspect=fixed;fillColor=none;strokeColor=none;resizable=0;perimeter=centerPerimeter;rotatable=0;allowArrows=0;points=[];outlineConnect=1;" parent="1" vertex="1">
          <mxGeometry x="1560" y="620" width="10" height="10" as="geometry" />
        </mxCell>
        <mxCell id="ubvg3rel_VxKxt8CuiRT-37" value="" style="html=1;rounded=0;" parent="1" vertex="1">
          <mxGeometry x="1575" y="580" width="20" height="20" as="geometry" />
        </mxCell>
        <mxCell id="ubvg3rel_VxKxt8CuiRT-42" value="" style="endArrow=none;html=1;rounded=0;exitX=0.5;exitY=0;exitDx=0;exitDy=0;entryX=1;entryY=0.5;entryDx=0;entryDy=0;edgeStyle=orthogonalEdgeStyle;" parent="1" source="ubvg3rel_VxKxt8CuiRT-37" target="mmdkQ3DgxTQABvhwrMoQ-5" edge="1">
          <mxGeometry width="50" height="50" relative="1" as="geometry">
            <mxPoint x="1690" y="350" as="sourcePoint" />
            <mxPoint x="1700" y="310" as="targetPoint" />
          </mxGeometry>
        </mxCell>
        <mxCell id="ubvg3rel_VxKxt8CuiRT-153" value="«external service»&lt;br&gt;EmailService" style="html=1;dropTarget=0;whiteSpace=wrap;" parent="1" vertex="1">
          <mxGeometry x="1710" y="670" width="180" height="90" as="geometry" />
        </mxCell>
        <mxCell id="ubvg3rel_VxKxt8CuiRT-154" value="" style="shape=module;jettyWidth=8;jettyHeight=4;" parent="ubvg3rel_VxKxt8CuiRT-153" vertex="1">
          <mxGeometry x="1" width="20" height="20" relative="1" as="geometry">
            <mxPoint x="-27" y="7" as="offset" />
          </mxGeometry>
        </mxCell>
        <mxCell id="ubvg3rel_VxKxt8CuiRT-155" value="" style="rounded=0;orthogonalLoop=1;jettySize=auto;html=1;endArrow=halfCircle;endFill=0;endSize=6;strokeWidth=1;sketch=0;exitX=0.5;exitY=1;exitDx=0;exitDy=0;" parent="1" source="ubvg3rel_VxKxt8CuiRT-110" target="ubvg3rel_VxKxt8CuiRT-157" edge="1">
          <mxGeometry relative="1" as="geometry">
            <mxPoint x="2040" y="546" as="sourcePoint" />
          </mxGeometry>
        </mxCell>
        <mxCell id="ubvg3rel_VxKxt8CuiRT-156" value="" style="rounded=0;orthogonalLoop=1;jettySize=auto;html=1;endArrow=oval;endFill=0;sketch=0;sourcePerimeterSpacing=0;targetPerimeterSpacing=0;endSize=10;exitX=0.5;exitY=0;exitDx=0;exitDy=0;" parent="1" source="ubvg3rel_VxKxt8CuiRT-153" target="ubvg3rel_VxKxt8CuiRT-157" edge="1">
          <mxGeometry relative="1" as="geometry">
            <mxPoint x="2000" y="546" as="sourcePoint" />
          </mxGeometry>
        </mxCell>
        <mxCell id="ubvg3rel_VxKxt8CuiRT-157" value="" style="ellipse;whiteSpace=wrap;html=1;align=center;aspect=fixed;fillColor=none;strokeColor=none;resizable=0;perimeter=centerPerimeter;rotatable=0;allowArrows=0;points=[];outlineConnect=1;" parent="1" vertex="1">
          <mxGeometry x="1782" y="622" width="10" height="10" as="geometry" />
        </mxCell>
      </root>
    </mxGraphModel>
  </diagram>
</mxfile>
